<svg width="63" height="63" viewBox="0 0 63 63" fill="none" xmlns="http://www.w3.org/2000/svg">
<path d="M35.9944 57.2128L37.401 54.8365L34.0514 52.8539L32.6448 55.2304L35.9944 57.2128ZM25.5988 54.8365L27.0055 57.2128L30.3549 55.2304L28.9482 52.8539L25.5988 54.8365ZM32.6448 55.2304C32.1447 56.0753 30.8551 56.0753 30.3549 55.2304L27.0055 57.2128C29.0128 60.6042 33.987 60.6042 35.9944 57.2128L32.6448 55.2304ZM27.6078 7.86075H35.3921V3.96857H27.6078V7.86075ZM55.5017 27.9704V30.5651H59.3939V27.9704H55.5017ZM7.49814 30.5651V27.9704H3.60596V30.5651H7.49814ZM3.60596 30.5651C3.60596 33.5611 3.60489 35.9055 3.73391 37.7963C3.86414 39.7048 4.1333 41.293 4.74167 42.7617L8.33758 41.2723C7.95838 40.3568 7.73377 39.2416 7.61709 37.5314C7.4992 35.8038 7.49814 33.6143 7.49814 30.5651H3.60596ZM20.6083 48.0582C17.3507 48.0019 15.6438 47.7948 14.3058 47.2406L12.8163 50.8364C14.9051 51.7015 17.2841 51.8935 20.5413 51.9496L20.6083 48.0582ZM4.74167 42.7617C6.25596 46.4175 9.16052 49.3221 12.8163 50.8364L14.3058 47.2406C11.6037 46.1212 9.45684 43.9745 8.33758 41.2723L4.74167 42.7617ZM55.5017 30.5651C55.5017 33.6143 55.5007 35.8038 55.3829 37.5314C55.2661 39.2416 55.0414 40.3568 54.6623 41.2723L58.2582 42.7617C58.8666 41.293 59.1357 39.7048 59.266 37.7963C59.395 35.9055 59.3939 33.5611 59.3939 30.5651H55.5017ZM42.4585 51.9496C45.7157 51.8935 48.0949 51.7015 50.1834 50.8364L48.694 47.2406C47.3562 47.7948 45.6491 48.0019 42.3916 48.0582L42.4585 51.9496ZM54.6623 41.2723C53.5429 43.9745 51.3963 46.1212 48.694 47.2406L50.1834 50.8364C53.8392 49.3221 56.7439 46.4175 58.2582 42.7617L54.6623 41.2723ZM35.3921 7.86075C39.6766 7.86075 42.7535 7.8628 45.1535 8.09099C47.5246 8.31642 49.0332 8.74876 50.2359 9.48581L52.2697 6.16718C50.3524 4.99239 48.1777 4.46882 45.5219 4.21629C42.8949 3.96652 39.6014 3.96857 35.3921 3.96857V7.86075ZM59.3939 27.9704C59.3939 23.7611 59.396 20.4675 59.1461 17.8406C58.8936 15.1847 58.37 13.01 57.1953 11.0929L53.8766 13.1266C54.6138 14.3293 55.0461 15.838 55.2716 18.209C55.4997 20.6089 55.5017 23.6857 55.5017 27.9704H59.3939ZM50.2359 9.48581C51.7198 10.3951 52.9674 11.6427 53.8766 13.1266L57.1953 11.0929C55.9652 9.08533 54.2772 7.39742 52.2697 6.16718L50.2359 9.48581ZM27.6078 3.96857C23.3985 3.96857 20.1049 3.96652 17.478 4.21629C14.8221 4.46882 12.6474 4.99239 10.7303 6.16718L12.764 9.48581C13.9667 8.74876 15.4754 8.31642 17.8464 8.09099C20.2463 7.8628 23.3231 7.86075 27.6078 7.86075V3.96857ZM7.49814 27.9704C7.49814 23.6857 7.50019 20.6089 7.72838 18.209C7.95381 15.838 8.38616 14.3293 9.1232 13.1266L5.80457 11.0929C4.62978 13.01 4.10621 15.1847 3.85368 17.8406C3.60391 20.4675 3.60596 23.7611 3.60596 27.9704H7.49814ZM10.7303 6.16718C8.72272 7.39742 7.03482 9.08533 5.80457 11.0929L9.1232 13.1266C10.0325 11.6427 11.2801 10.3951 12.764 9.48581L10.7303 6.16718ZM28.9482 52.8539C28.4215 51.9639 27.9591 51.1784 27.5094 50.5614C27.0356 49.9116 26.4925 49.3265 25.7391 48.8882L23.7823 52.2529C23.9053 52.3243 24.0729 52.4548 24.3639 52.8539C24.6788 53.2862 25.0346 53.8832 25.5988 54.8365L28.9482 52.8539ZM20.5413 51.9496C21.6806 51.9693 22.4023 51.9838 22.9524 52.0446C23.4664 52.1016 23.6657 52.1849 23.7823 52.2529L25.7391 48.8882C24.9795 48.4464 24.189 48.2655 23.3808 48.176C22.6086 48.0906 21.6754 48.0766 20.6083 48.0582L20.5413 51.9496ZM37.401 54.8365C37.9651 53.8832 38.3209 53.2862 38.6359 52.8539C38.9267 52.4548 39.0944 52.3243 39.2174 52.2529L37.2606 48.8882C36.5074 49.3265 35.964 49.9116 35.4905 50.5614C35.0408 51.1784 34.5784 51.9639 34.0514 52.8539L37.401 54.8365ZM42.3916 48.0582C41.3243 48.0766 40.3912 48.0906 39.619 48.176C38.8107 48.2655 38.0204 48.4464 37.2606 48.8882L39.2174 52.2529C39.3341 52.1849 39.5334 52.1016 40.0474 52.0446C40.5975 51.9838 41.3191 51.9693 42.4585 51.9496L42.3916 48.0582Z" fill="#F5886C"/>
<path opacity="0.5" d="M23.7156 29.4753L28.9052 34.4573L39.2843 24.0782" stroke="#908C8A" stroke-width="3.89218" stroke-linecap="round" stroke-linejoin="round"/>
</svg>
