<svg width="69" height="69" viewBox="0 0 69 69" fill="none" xmlns="http://www.w3.org/2000/svg">
<path d="M33.1083 62.9549L33.8525 61.6979L30.1503 59.5068L29.4064 60.7639L33.1083 62.9549ZM23.676 61.6979L24.42 62.9549L28.122 60.7639L27.378 59.5068L23.676 61.6979ZM29.4064 60.7639C29.2762 60.9838 29.0488 61.1132 28.7642 61.1132C28.4796 61.1132 28.2522 60.9838 28.122 60.7639L24.42 62.9549C26.3614 66.235 31.167 66.235 33.1083 62.9549L29.4064 60.7639ZM25.3228 19.5283H32.2058V15.2264H25.3228V19.5283ZM49.5567 36.8792V39.1735H53.8586V36.8792H49.5567ZM7.97181 39.1735V36.8792H3.66992V39.1735H7.97181ZM3.66992 39.1735C3.66992 41.8169 3.66875 43.9068 3.78407 45.5968C3.9007 47.3061 4.14362 48.7627 4.70688 50.1227L8.6813 48.4765C8.37134 47.728 8.17767 46.7945 8.07597 45.304C7.97298 43.7943 7.97181 41.8757 7.97181 39.1735H3.66992ZM18.191 54.1883C15.9189 54.1154 14.6841 53.9178 13.7257 53.5209L12.0794 57.4953C13.7912 58.2042 15.6792 58.4119 18.0535 58.4879L18.191 54.1883ZM4.70688 50.1227C6.0895 53.4607 8.74147 56.1127 12.0794 57.4953L13.7257 53.5209C11.4418 52.5748 9.62732 50.7602 8.6813 48.4765L4.70688 50.1227ZM49.5567 39.1735C49.5567 41.8757 49.5556 43.7943 49.4526 45.304C49.3508 46.7945 49.1572 47.728 48.8472 48.4765L52.8216 50.1227C53.3848 48.7627 53.6277 47.3061 53.7444 45.5968C53.8597 43.9068 53.8586 41.8169 53.8586 39.1735H49.5567ZM39.4748 58.4879C41.8492 58.4119 43.7374 58.2042 45.449 57.4953L43.8028 53.5209C42.8443 53.9178 41.6097 54.1154 39.3374 54.1883L39.4748 58.4879ZM48.8472 48.4765C47.9013 50.7602 46.0868 52.5748 43.8028 53.5209L45.449 57.4953C48.787 56.1127 51.4389 53.4607 52.8216 50.1227L48.8472 48.4765ZM32.2058 19.5283C36.0026 19.5283 38.699 19.5305 40.7961 19.7299C42.8613 19.9262 44.1214 20.2984 45.106 20.9018L47.3539 17.2338C45.5798 16.1467 43.5831 15.6736 41.2033 15.4474C38.8556 15.2241 35.9194 15.2264 32.2058 15.2264V19.5283ZM53.8586 36.8792C53.8586 33.1658 53.8609 30.2296 53.6378 27.8817C53.4115 25.5018 52.9383 23.5053 51.851 21.7312L48.1833 23.979C48.7864 24.9635 49.1586 26.2239 49.3551 28.2889C49.5544 30.3859 49.5567 33.0824 49.5567 36.8792H53.8586ZM45.106 20.9018C46.3601 21.6703 47.4147 22.7248 48.1833 23.979L51.851 21.7312C50.728 19.8982 49.1867 18.3571 47.3539 17.2338L45.106 20.9018ZM25.3228 15.2264C21.6092 15.2264 18.673 15.2241 16.3252 15.4474C13.9453 15.6736 11.9488 16.1467 10.1747 17.2338L12.4225 20.9018C13.407 20.2984 14.6674 19.9262 16.7324 19.7299C18.8293 19.5305 21.5259 19.5283 25.3228 19.5283V15.2264ZM7.97181 36.8792C7.97181 33.0824 7.97408 30.3859 8.17345 28.2889C8.36979 26.2239 8.74199 24.9635 9.34532 23.979L5.67736 21.7312C4.59021 23.5053 4.11718 25.5018 3.8909 27.8817C3.66766 30.2296 3.66992 33.1658 3.66992 36.8792H7.97181ZM10.1747 17.2338C8.34174 18.3571 6.80061 19.8982 5.67736 21.7312L9.34532 23.979C10.1139 22.7248 11.1683 21.6703 12.4225 20.9018L10.1747 17.2338ZM27.378 59.5068C26.8021 58.5338 26.297 57.6762 25.8071 57.0017C25.2917 56.2922 24.7012 55.6509 23.8837 55.1674L21.6935 58.8702C21.8257 58.9482 22.0082 59.0916 22.3265 59.5298C22.6702 60.0033 23.0594 60.6563 23.676 61.6979L27.378 59.5068ZM18.0535 58.4879C19.331 58.5289 20.1476 58.557 20.768 58.6327C21.3544 58.7041 21.5745 58.7996 21.6935 58.8702L23.8837 55.1674C23.0529 54.6761 22.1787 54.4708 21.2888 54.3624C20.4329 54.258 19.3912 54.2267 18.191 54.1883L18.0535 58.4879ZM33.8525 61.6979C34.4688 60.6563 34.8583 60.0033 35.2019 59.5298C35.5202 59.0916 35.7026 58.9482 35.8348 58.8702L33.6449 55.1674C32.8272 55.6509 32.2367 56.2922 31.7214 57.0017C31.2315 57.6762 30.7262 58.5338 30.1503 59.5068L33.8525 61.6979ZM39.3374 54.1883C38.1372 54.2267 37.0956 54.258 36.2395 54.3624C35.3499 54.4708 34.4754 54.6761 33.6449 55.1674L35.8348 58.8702C35.9539 58.7996 36.1741 58.7041 36.7603 58.6327C37.3806 58.557 38.1974 58.5289 39.4748 58.4879L39.3374 54.1883Z" fill="#F5886C"/>
<path opacity="0.5" d="M38.4432 8.05659H44.896V3.7547H38.4432V8.05659ZM61.0281 24.1887V26.3397H65.33V24.1887H61.0281ZM61.0281 26.3397C61.0281 28.8746 61.027 30.6682 60.9309 32.0777C60.8359 33.4681 60.6558 34.3271 60.3734 35.0096L64.3477 36.6558C64.8837 35.3618 65.1129 33.98 65.2227 32.3706C65.3314 30.7806 65.33 28.8158 65.33 26.3397H61.0281ZM60.3734 35.0096C59.5001 37.1178 57.8252 38.7927 55.717 39.666L57.3632 43.6404C60.5256 42.3306 63.0379 39.818 64.3477 36.6558L60.3734 35.0096ZM44.896 8.05659C48.4583 8.05659 50.9789 8.05885 52.9368 8.24504C54.8629 8.42815 56.0216 8.77394 56.9198 9.32444L59.1677 5.65648C57.4799 4.62216 55.5851 4.17554 53.3441 3.96245C51.1352 3.75244 48.3751 3.7547 44.896 3.7547V8.05659ZM65.33 24.1887C65.33 20.7099 65.3323 17.9497 65.1223 15.7408C64.9093 13.4998 64.4627 11.605 63.4283 9.91718L59.7605 12.1649C60.3108 13.0632 60.6567 14.2218 60.8397 16.1479C61.0261 18.106 61.0281 20.6266 61.0281 24.1887H65.33ZM56.9198 9.32444C58.0776 10.0339 59.0509 11.0072 59.7605 12.1649L63.4283 9.91718C62.3643 8.18065 60.9042 6.72062 59.1677 5.65648L56.9198 9.32444ZM38.4432 3.7547C34.9644 3.7547 32.2043 3.75244 29.9954 3.96245C27.7544 4.17554 25.8597 4.62216 24.1718 5.65648L26.4196 9.32444C27.3179 8.77394 28.4765 8.42815 30.4027 8.24504C32.3606 8.05885 34.8812 8.05659 38.4432 8.05659V3.7547ZM24.1718 5.65648C22.4353 6.72062 20.9753 8.18065 19.9112 9.91718L23.5791 12.1649C24.2885 11.0072 25.2619 10.0339 26.4196 9.32444L24.1718 5.65648ZM22.4037 17.4891C22.547 14.7348 22.9052 13.2646 23.5791 12.1649L19.9112 9.91718C18.6575 11.963 18.2604 14.3292 18.1077 17.2656L22.4037 17.4891ZM51.779 44.579C53.9779 44.5059 55.7497 44.3089 57.3632 43.6404L55.717 39.666C54.8509 40.0248 53.7264 40.21 51.6362 40.2797L51.779 44.579Z" fill="#918C8A"/>
<path opacity="0.5" d="M18.7532 37.4528H18.779M28.7643 37.4528H28.7901M38.7762 37.4528H38.802" stroke="#F5886C" stroke-width="5.73585" stroke-linecap="round" stroke-linejoin="round"/>
</svg>
