<svg width="70" height="69" viewBox="0 0 70 69" fill="none" xmlns="http://www.w3.org/2000/svg">
<path d="M35 54.6249C39.7635 54.6249 43.625 50.7633 43.625 45.9999C43.625 41.2364 39.7635 37.3749 35 37.3749C30.2365 37.3749 26.375 41.2364 26.375 45.9999C26.375 50.7633 30.2365 54.6249 35 54.6249Z" stroke="#F5886C" stroke-width="4.3125"/>
<path d="M35 55.3721L28.4942 61.6092C27.5625 62.5024 27.0967 62.9489 26.7022 63.1036C25.8032 63.4558 24.806 63.1542 24.3331 62.3874C24.1255 62.0511 24.0609 61.4442 23.9315 60.23C23.8585 59.5449 23.822 59.2022 23.7112 58.915C23.463 58.2725 22.9416 57.7725 22.2714 57.5347C21.972 57.4284 21.6146 57.3936 20.8996 57.3234C19.6335 57.1995 19.0004 57.1374 18.6494 56.9385C17.8496 56.4851 17.5352 55.5291 17.9025 54.6672C18.0637 54.2891 18.5296 53.8424 19.4613 52.9491L23.7112 48.8747L26.7022 45.8838" stroke="#F5886C" stroke-width="4.3125"/>
<path d="M35 55.3721L41.5058 61.6094C42.4373 62.5027 42.9034 62.9491 43.2978 63.1038C44.1968 63.456 45.1939 63.1544 45.6668 62.3877C45.8744 62.0513 45.9391 61.4444 46.0685 60.2303C46.1415 59.5449 46.178 59.2022 46.2887 58.9152C46.5371 58.2727 47.0583 57.7727 47.7285 57.5349C48.0281 57.4286 48.3854 57.3938 49.1004 57.3236C50.3666 57.1997 50.9997 57.1376 51.3507 56.9387C52.1505 56.4853 52.4648 55.5293 52.0973 54.6674C51.9363 54.2891 51.4703 53.8426 50.5388 52.9493L46.2887 48.8749L43.625 46.2112" stroke="#F5886C" stroke-width="4.3125"/>
<path opacity="0.5" d="M50.2941 51.7375C55.9648 51.6774 59.1256 51.3221 61.2237 49.2236C63.75 46.6974 63.75 42.6315 63.75 34.4999V22.9999C63.75 14.8681 63.75 10.8023 61.2237 8.27608C58.6975 5.74988 54.6316 5.74988 46.5 5.74988H23.5C15.3683 5.74988 11.3024 5.74988 8.7762 8.27608C6.25 10.8023 6.25 14.8681 6.25 22.9999V34.4999C6.25 42.6315 6.25 46.6974 8.7762 49.2236C10.9853 51.4328 14.3718 51.7102 20.625 51.745" stroke="#908C8A" stroke-width="4.3125"/>
<path opacity="0.5" d="M26.375 17.2499H43.625" stroke="#F5886C" stroke-width="4.3125" stroke-linecap="round"/>
<path opacity="0.5" d="M20.625 27.3124H49.375" stroke="#F5886C" stroke-width="4.3125" stroke-linecap="round"/>
</svg>
