<svg width="45" height="45" viewBox="0 0 45 45" fill="none" xmlns="http://www.w3.org/2000/svg">
<path d="M40.2414 18.5309H38.7549V18.4544H22.1458V25.8362H32.5754C31.0538 30.1334 26.9652 33.2181 22.1458 33.2181C16.0308 33.2181 11.073 28.2602 11.073 22.1453C11.073 16.0303 16.0308 11.0725 22.1458 11.0725C24.9684 11.0725 27.5364 12.1373 29.4916 13.8767L34.7115 8.65681C31.4155 5.58504 27.0067 3.69067 22.1458 3.69067C11.9542 3.69067 3.69116 11.9537 3.69116 22.1453C3.69116 32.3368 11.9542 40.5999 22.1458 40.5999C32.3373 40.5999 40.6004 32.3368 40.6004 22.1453C40.6004 20.9079 40.473 19.7 40.2414 18.5309Z" fill="#FFC107"/>
<path d="M5.8186 13.5556L11.8819 18.0022C13.5225 13.9404 17.4958 11.0725 22.1454 11.0725C24.968 11.0725 27.536 12.1373 29.4913 13.8767L34.7111 8.65681C31.4151 5.58504 27.0063 3.69067 22.1454 3.69067C15.057 3.69067 8.90975 7.69256 5.8186 13.5556Z" fill="#FF3D00"/>
<path d="M22.1467 40.5997C26.9136 40.5997 31.2449 38.7755 34.5196 35.8089L28.8079 30.9756C26.8929 32.4321 24.5527 33.2198 22.1467 33.2179C17.3467 33.2179 13.271 30.1572 11.7356 25.8859L5.71753 30.5226C8.77177 36.4991 14.9744 40.5997 22.1467 40.5997Z" fill="#4CAF50"/>
<path d="M40.2419 18.5312H38.7554V18.4546H22.1462V25.8364H32.5759C31.848 27.8816 30.537 29.6687 28.8047 30.977L28.8074 30.9751L34.5191 35.8084C34.115 36.1756 40.6009 31.3728 40.6009 22.1455C40.6009 20.9081 40.4735 19.7003 40.2419 18.5312Z" fill="#1976D2"/>
</svg>
