<svg width="33" height="32" viewBox="0 0 33 32" fill="none" xmlns="http://www.w3.org/2000/svg">
<path opacity="0.5" d="M3.16675 16.0002C3.16675 10.9718 3.16675 8.4577 4.72884 6.89559C6.29095 5.3335 8.80509 5.3335 13.8334 5.3335H19.1667C24.195 5.3335 26.7093 5.3335 28.2713 6.89559C29.8334 8.4577 29.8334 10.9718 29.8334 16.0002C29.8334 21.0284 29.8334 23.5427 28.2713 25.1047C26.7093 26.6668 24.195 26.6668 19.1667 26.6668H13.8334C8.80509 26.6668 6.29095 26.6668 4.72884 25.1047C3.16675 23.5427 3.16675 21.0284 3.16675 16.0002Z" stroke="#686868" stroke-width="1.9375"/>
<path d="M8.5 10.6665L11.3785 13.0653C13.8274 15.106 15.0519 16.1264 16.5 16.1264C17.9481 16.1264 19.1727 15.106 21.6215 13.0653L24.5 10.6665" stroke="#F5886C" stroke-width="1.9375" stroke-linecap="round"/>
</svg>
