<svg width="32" height="32" viewBox="0 0 32 32" fill="none" xmlns="http://www.w3.org/2000/svg">
<path opacity="0.5" d="M24 10.6665L25.2649 11.0881C26.5849 11.5282 27.2449 11.7482 27.6225 12.2719C28 12.7957 28 13.4914 28 14.8829V22.4385C28 24.1597 28 25.0202 27.5471 25.5732C27.3932 25.7609 27.2064 25.919 26.996 26.04C26.3761 26.3958 25.5273 26.2544 23.8295 25.9714C22.1543 25.6922 21.3167 25.5526 20.4864 25.6221C20.1951 25.6465 19.9056 25.69 19.62 25.7524C18.8061 25.9301 18.0399 26.3132 16.5075 27.0794C14.5079 28.0793 13.508 28.5792 12.4438 28.7333C12.1232 28.7797 11.7997 28.8026 11.4758 28.802C10.4005 28.8 9.34915 28.4496 7.24651 27.7486L6.73509 27.5782C5.41505 27.1382 4.75503 26.9182 4.37752 26.3944C4 25.8706 4 25.1749 4 23.7834V17.2105C4 14.9986 4 13.8928 4.65121 13.2979C4.76517 13.1939 4.89079 13.1033 5.02556 13.0281C5.79575 12.5984 6.84492 12.9481 8.94328 13.6476" stroke="#686868" stroke-width="2"/>
<path d="M8 10.2669C8 6.06932 11.5817 2.6665 16 2.6665C20.4183 2.6665 24 6.06932 24 10.2669C24 14.4316 21.4467 19.2914 17.4629 21.0293C16.5343 21.4345 15.4657 21.4345 14.5371 21.0293C10.5533 19.2914 8 14.4316 8 10.2669Z" stroke="#F5886C" stroke-width="2"/>
<path d="M15.9999 13.3333C17.4727 13.3333 18.6666 12.1394 18.6666 10.6667C18.6666 9.19391 17.4727 8 15.9999 8C14.5272 8 13.3333 9.19391 13.3333 10.6667C13.3333 12.1394 14.5272 13.3333 15.9999 13.3333Z" stroke="#F9B4A3" stroke-width="2"/>
</svg>
