<svg width="32" height="32" viewBox="0 0 32 32" fill="none" xmlns="http://www.w3.org/2000/svg">
<path d="M20 11.9998L25.3333 6.6665M25.3333 6.6665V10.6665M25.3333 6.6665H21.3333" stroke="#F5886C" stroke-width="1.625" stroke-linecap="round" stroke-linejoin="round"/>
<path opacity="0.5" d="M20.8594 20.725L21.4667 20.0856L20.0166 18.7083L19.4092 19.3476L20.8594 20.725ZM23.465 19.8164L26.0123 21.2827L27.01 19.5494L24.4627 18.0831L23.465 19.8164ZM26.5039 24.3226L24.6098 26.3167L26.0599 27.694L27.954 25.6999L26.5039 24.3226ZM23.4702 26.9556C21.5568 27.1446 16.5644 26.9834 11.1456 21.2783L9.69547 22.6556C15.6012 28.8734 21.2348 29.186 23.6666 28.946L23.4702 26.9556ZM11.1456 21.2783C5.97742 15.8371 5.11051 11.2474 5.00246 9.23434L3.00534 9.34153C3.13767 11.8072 4.18458 16.8538 9.69547 22.6556L11.1456 21.2783ZM12.9794 12.4288L13.3618 12.0262L11.9117 10.6488L11.5293 11.0514L12.9794 12.4288ZM13.6622 7.01352L11.9809 4.63553L10.3479 5.79016L12.0292 8.16813L13.6622 7.01352ZM6.29026 4.12286L4.19746 6.32618L5.64757 7.70356L7.74037 5.50024L6.29026 4.12286ZM12.2543 11.7401C11.5293 11.0514 11.5283 11.0524 11.5274 11.0534C11.5271 11.0537 11.5262 11.0547 11.5255 11.0554C11.5243 11.0567 11.523 11.0581 11.5217 11.0595C11.519 11.0624 11.5163 11.0653 11.5135 11.0684C11.5079 11.0745 11.502 11.0812 11.4958 11.0884C11.4833 11.1027 11.4696 11.1191 11.4549 11.1376C11.4256 11.1747 11.3925 11.2202 11.3577 11.2745C11.2879 11.3835 11.2123 11.5271 11.1482 11.7071C11.0179 12.0732 10.947 12.558 11.0357 13.1635C11.2099 14.353 11.9894 15.9526 14.0258 18.0966L15.4759 16.7192C13.5724 14.7151 13.1035 13.4808 13.0145 12.8735C12.9716 12.5805 13.0152 12.4261 13.0325 12.3776C13.0422 12.3504 13.0485 12.3428 13.0423 12.3525C13.0393 12.3572 13.0333 12.366 13.0232 12.3788C13.0182 12.3852 13.0121 12.3925 13.0048 12.4009C13.0012 12.405 12.9973 12.4094 12.9931 12.4141C12.9909 12.4164 12.9887 12.4188 12.9865 12.4213C12.9853 12.4225 12.9842 12.4237 12.983 12.425C12.9824 12.4256 12.9815 12.4266 12.9812 12.4269C12.9803 12.4279 12.9794 12.4288 12.2543 11.7401ZM14.0258 18.0966C16.0563 20.2343 17.5898 21.0747 18.7598 21.2647C19.3602 21.3622 19.8462 21.2843 20.2142 21.1392C20.394 21.0683 20.5363 20.985 20.6431 20.9092C20.6964 20.8714 20.7408 20.8355 20.7766 20.8042C20.7946 20.7884 20.8103 20.7738 20.824 20.7604C20.831 20.7539 20.8374 20.7475 20.8432 20.7416C20.8462 20.7387 20.849 20.7358 20.8516 20.733C20.853 20.7316 20.8543 20.7303 20.8556 20.729C20.8563 20.7283 20.8572 20.7272 20.8575 20.727C20.8584 20.7259 20.8594 20.725 20.1343 20.0363C19.4092 19.3476 19.4102 19.3467 19.4111 19.3458C19.4114 19.3454 19.4123 19.3444 19.4128 19.3438C19.414 19.3426 19.4152 19.3414 19.4164 19.3402C19.4188 19.3378 19.4211 19.3354 19.4232 19.3331C19.4278 19.3287 19.432 19.3244 19.436 19.3206C19.444 19.3128 19.4514 19.3062 19.4578 19.3006C19.4704 19.2894 19.4799 19.2822 19.486 19.2779C19.4986 19.269 19.4972 19.272 19.4803 19.2787C19.4546 19.2888 19.3334 19.3316 19.0804 19.2906C18.5436 19.2034 17.3855 18.7296 15.4759 16.7192L14.0258 18.0966ZM11.9809 4.63553C10.6295 2.72409 7.92517 2.40161 6.29026 4.12286L7.74037 5.50024C8.43749 4.7663 9.66473 4.82396 10.3479 5.79016L11.9809 4.63553ZM5.00246 9.23434C4.97389 8.70194 5.20571 8.16874 5.64757 7.70356L4.19746 6.32618C3.48299 7.07838 2.93995 8.1233 3.00534 9.34153L5.00246 9.23434ZM24.6098 26.3167C24.2378 26.7084 23.8486 26.9183 23.4702 26.9556L23.6666 28.946C24.6627 28.8476 25.4688 28.3164 26.0599 27.694L24.6098 26.3167ZM13.3618 12.0262C14.6519 10.668 14.7432 8.5424 13.6622 7.01352L12.0292 8.16813C12.592 8.96422 12.5057 10.0234 11.9117 10.6488L13.3618 12.0262ZM26.0123 21.2827C27.1067 21.9127 27.321 23.4624 26.5039 24.3226L27.954 25.6999C29.6939 23.868 29.1872 20.8026 27.01 19.5494L26.0123 21.2827ZM21.4667 20.0856C21.9806 19.5446 22.7814 19.423 23.465 19.8164L24.4627 18.0831C22.998 17.24 21.1815 17.4818 20.0166 18.7083L21.4667 20.0856Z" fill="#686868"/>
</svg>
