<svg width="18" height="18" viewBox="0 0 18 18" fill="none" xmlns="http://www.w3.org/2000/svg">
<g clip-path="url(#clip0_33_232)">
<path d="M13.2264 16.6071C13.0361 16.6071 12.8466 16.5486 12.6836 16.4322L8.85054 13.6834L5.01748 16.4322C4.85867 16.5465 4.66782 16.6077 4.47218 16.607C4.27655 16.6063 4.08613 16.5438 3.92811 16.4285C3.76995 16.3138 3.65198 16.1522 3.59098 15.9666C3.52999 15.781 3.52908 15.5808 3.58839 15.3947L5.01795 10.7809L1.21929 8.10411C1.06186 7.98793 0.94494 7.82518 0.885074 7.63891C0.825208 7.45263 0.825424 7.25225 0.885691 7.0661C0.946433 6.8804 1.064 6.71849 1.22177 6.60325C1.37954 6.488 1.56954 6.42526 1.76492 6.42388L6.46966 6.41681L7.96755 1.9175C8.02937 1.73215 8.14793 1.57094 8.30644 1.45671C8.46496 1.34247 8.65539 1.28101 8.85078 1.28101C9.04617 1.28101 9.2366 1.34247 9.39512 1.45671C9.55363 1.57094 9.67219 1.73215 9.73401 1.9175L11.2065 6.41681L15.9352 6.42388C16.1308 6.42498 16.3211 6.4877 16.4791 6.60311C16.637 6.71853 16.7545 6.88077 16.815 7.0668C16.8755 7.25283 16.8758 7.45319 16.8159 7.6394C16.756 7.82561 16.6389 7.98822 16.4813 8.10411L12.6827 10.7809L14.1122 15.3947C14.1717 15.5808 14.1709 15.7809 14.1099 15.9665C14.049 16.1521 13.9311 16.3138 13.773 16.4285C13.6145 16.5447 13.423 16.6073 13.2264 16.6071Z" fill="#FFAC33"/>
</g>
<defs>
<clipPath id="clip0_33_232">
<rect width="16.9625" height="16.9625" fill="white" transform="translate(0.368896 0.291016)"/>
</clipPath>
</defs>
</svg>
