<svg width="32" height="32" viewBox="0 0 32 32" fill="none" xmlns="http://www.w3.org/2000/svg">
<path d="M25.4003 6.54658C24.1779 5.31182 22.7219 4.33281 21.1172 3.66665C19.5124 3.0005 17.7911 2.66053 16.0536 2.66658C8.77364 2.66658 2.84031 8.59992 2.84031 15.8799C2.84031 18.2132 3.45364 20.4799 4.60031 22.4799L2.73364 29.3332L9.73364 27.4933C11.667 28.5466 13.8403 29.1066 16.0536 29.1066C23.3336 29.1066 29.267 23.1733 29.267 15.8933C29.267 12.3599 27.8936 9.03992 25.4003 6.54658ZM16.0536 26.8666C14.0803 26.8666 12.147 26.3332 10.4536 25.3332L10.0536 25.0932L5.89364 26.1866L7.00031 22.1332L6.73364 21.7199C5.6373 19.9692 5.05516 17.9456 5.05364 15.8799C5.05364 9.82658 9.98698 4.89325 16.0403 4.89325C18.9736 4.89325 21.7336 6.03992 23.8003 8.11992C24.8236 9.13853 25.6346 10.3501 26.1862 11.6845C26.7378 13.0188 27.019 14.4494 27.0136 15.8933C27.0403 21.9466 22.107 26.8666 16.0536 26.8666ZM22.0803 18.6532C21.747 18.4932 20.1203 17.6933 19.827 17.5733C19.5203 17.4666 19.307 17.4132 19.0803 17.7332C18.8536 18.0666 18.227 18.8133 18.0403 19.0266C17.8536 19.2533 17.6536 19.2799 17.3203 19.1066C16.987 18.9466 15.9203 18.5866 14.667 17.4666C13.6803 16.5866 13.027 15.5066 12.827 15.1732C12.6403 14.8399 12.8003 14.6666 12.9736 14.4932C13.1203 14.3466 13.307 14.1066 13.467 13.9199C13.627 13.7332 13.6936 13.5866 13.8003 13.3732C13.907 13.1466 13.8536 12.9599 13.7736 12.7999C13.6936 12.6399 13.027 11.0133 12.7603 10.3466C12.4936 9.70658 12.2136 9.78658 12.0136 9.77325H11.3736C11.147 9.77325 10.8003 9.85325 10.4936 10.1866C10.2003 10.5199 9.34698 11.3199 9.34698 12.9466C9.34698 14.5733 10.5336 16.1466 10.6936 16.3599C10.8536 16.5866 13.027 19.9199 16.3336 21.3466C17.1203 21.6932 17.7336 21.8933 18.2136 22.0399C19.0003 22.2933 19.7203 22.2532 20.2936 22.1732C20.9336 22.0799 22.2536 21.3732 22.5203 20.5999C22.8003 19.8266 22.8003 19.1733 22.707 19.0266C22.6136 18.8799 22.4136 18.8132 22.0803 18.6532Z" fill="#4CAF50"/>
</svg>
